<svg width="30" height="36" viewBox="0 0 30 36" fill="none" xmlns="http://www.w3.org/2000/svg">
<path d="M15.2993 0C19.5695 0 22.5144 2.10879 22.5144 5.72385V6.62761H28.1097V14.3096C28.1097 21.3891 31.2019 34.3431 28.846 34.3431C27.8153 34.3431 21.4837 36 15.2993 36C8.52597 36 1.75263 34.3431 1.75263 34.3431C-0.456067 34.3431 2.48886 21.2385 2.48886 14.3096V6.47699H8.08423V5.57322C8.08423 1.95816 11.0292 0 15.2993 0ZM26.49 8.13389H22.5144V11.4477H20.8947V8.13389H9.70394V11.4477H8.08423V8.13389H4.10857V14.159C4.10857 16.1172 3.96133 18.5272 3.51959 22.1423L3.37234 23.4979C2.78335 28.0167 2.63611 29.3724 2.63611 31.0293V32.8368C3.81408 32.9874 4.99205 33.2887 6.17002 33.4393C9.2622 33.8912 12.3544 34.1925 15.1521 34.1925H15.8883C18.2442 34.1925 20.7474 33.8912 23.5451 33.4393C23.8396 33.4393 26.49 32.8368 27.8153 32.6862V30.5774C27.8153 29.0711 27.5208 27.7155 27.079 23.4979C27.079 23.046 26.9318 22.5941 26.9318 22.1423C26.49 18.5272 26.3428 16.1172 26.3428 14.159V8.13389H26.49ZM15.2993 1.6569C11.9126 1.6569 9.70394 3.16318 9.70394 5.57322V6.47699H20.8947V5.57322C20.8947 3.01255 18.686 1.6569 15.2993 1.6569Z" fill="black"/>
</svg>
