<svg width="20" height="25" viewBox="0 0 20 25" fill="none" xmlns="http://www.w3.org/2000/svg">
<path d="M10.3788 0.5C13.2255 0.5 15.1888 1.90586 15.1888 4.3159V4.91841H18.9191V10.0397C18.9191 14.7594 20.9805 23.3954 19.4099 23.3954C18.7227 23.3954 14.5017 24.5 10.3788 24.5C5.86322 24.5 1.34766 23.3954 1.34766 23.3954C-0.124805 23.3954 1.83848 14.659 1.83848 10.0397V4.81799H5.56873V4.21548C5.56873 1.80544 7.53201 0.5 10.3788 0.5ZM17.8393 5.92259H15.1888V8.1318H14.109V5.92259H6.64853V8.1318H5.56873V5.92259H2.91829V9.93933C2.91829 11.2448 2.82012 12.8515 2.52563 15.2615L2.42747 16.1653C2.03481 19.1778 1.93665 20.0816 1.93665 21.1862V22.3912C2.72196 22.4916 3.50728 22.6925 4.29259 22.7929C6.35404 23.0941 8.41549 23.295 10.2806 23.295H10.7714C12.3421 23.295 14.0109 23.0941 15.876 22.7929C16.0723 22.7929 17.8393 22.3912 18.7227 22.2908V20.8849C18.7227 19.8808 18.5264 18.977 18.2319 16.1653C18.2319 15.864 18.1338 15.5628 18.1338 15.2615C17.8393 12.8515 17.7411 11.2448 17.7411 9.93933V5.92259H17.8393ZM10.3788 1.6046C8.121 1.6046 6.64853 2.60879 6.64853 4.21548V4.81799H14.109V4.21548C14.109 2.50837 12.6366 1.6046 10.3788 1.6046Z" fill="#243232"/>
</svg>
