<svg width="39" height="36" viewBox="0 0 39 36" fill="none" xmlns="http://www.w3.org/2000/svg">
<path d="M28.1862 0C34.8369 0 38.9312 4.18186 38.9312 11.0419C38.9312 13.6827 37.3723 16.9302 34.5579 20.6984C33.1142 22.632 31.3623 24.6662 29.3736 26.7603C27.2996 28.9329 25.1421 31.0244 22.9061 33.0299C21.9387 33.9007 20.9566 34.7551 19.9603 35.5928L19.4656 36L18.9708 35.5912C18.82 35.4679 18.5426 35.2344 18.1549 34.9034C17.5126 34.3519 16.7956 33.7241 16.0251 33.0299C13.789 31.0244 11.6316 28.9329 9.55761 26.7603C7.56725 24.6662 5.81859 22.632 4.37327 20.6984C1.55887 16.9302 0 13.6827 0 11.0419C0 4.18186 4.09426 0 10.745 0C14.119 0 17.6066 2.53377 19.4656 5.80724C21.3229 2.53053 24.8089 0 28.1862 0ZM19.4656 33.7241L19.7576 33.4743C20.3789 32.9407 21.0748 32.3324 21.8226 31.6575C23.9901 29.7138 26.0815 27.6868 28.0921 25.581C30.0062 23.5631 31.6884 21.6101 33.0688 19.7624C35.6529 16.3041 37.0625 13.3664 37.0625 11.1879C37.0625 5.28329 33.716 1.86545 28.0353 1.86545C24.9095 1.86545 21.4673 4.73338 20.181 8.09931L19.4656 9.96801L18.7519 8.09931C17.4623 4.73501 14.0185 1.86545 10.8942 1.86545C5.21354 1.86545 1.86708 5.28329 1.86708 11.1879C1.86708 13.3664 3.27833 16.3041 5.86077 19.7624C7.23958 21.6117 8.92173 23.5631 10.8375 25.581C12.848 27.6873 14.9394 29.7149 17.107 31.6592C17.8836 32.3579 18.6699 33.0457 19.4656 33.7225V33.7241Z" fill="black"/>
</svg>
