<svg width="37" height="36" viewBox="0 0 37 36" fill="none" xmlns="http://www.w3.org/2000/svg">
<path d="M17.172 1.0964e-07C20.2707 -0.000359875 23.3047 0.885747 25.9161 2.55374C28.5274 4.22173 30.6072 6.60197 31.9097 9.41354C33.2123 12.2251 33.6833 15.3506 33.2673 18.4212C32.8512 21.4918 31.5654 24.3793 29.5617 26.7429L29.2748 27.0677L36.9312 34.7242L35.6554 36L27.999 28.3453C26.0369 30.1004 23.6775 31.3522 21.1241 31.9929C18.5707 32.6336 15.8998 32.644 13.3415 32.0231C10.7832 31.4022 8.41417 30.1687 6.43848 28.4289C4.4628 26.689 2.93967 24.495 2.00031 22.0357C1.06095 19.5764 0.733499 16.9256 1.04618 14.3117C1.35885 11.6977 2.30228 9.19894 3.7952 7.03061C5.28811 4.86228 7.28576 3.08937 9.61606 1.86461C11.9464 0.639842 14.5395 -6.65803e-05 17.172 1.0964e-07ZM17.172 1.80451C13.3434 1.80451 9.67156 3.32545 6.9643 6.03274C4.25704 8.74004 2.73612 12.4119 2.73612 16.2406C2.73612 20.0693 4.25704 23.7412 6.9643 26.4485C9.67156 29.1558 13.3434 30.6767 17.172 30.6767C21.0007 30.6767 24.6725 29.1558 27.3798 26.4485C30.087 23.7412 31.608 20.0693 31.608 16.2406C31.608 12.4119 30.087 8.74004 27.3798 6.03274C24.6725 3.32545 21.0007 1.80451 17.172 1.80451Z" fill="black"/>
</svg>
