<svg width="37" height="36" viewBox="0 0 37 36" fill="none" xmlns="http://www.w3.org/2000/svg">
<path d="M30.4285 28.2108C28.4826 27.5154 28.1163 27.3747 27.224 26.9672C23.3841 25.2212 21.8312 23.0808 22.8878 20.2908C23.1101 19.7017 23.3214 19.2304 23.8443 18.152L23.8631 18.1128C24.2998 17.2128 24.4673 16.8495 24.6646 16.3749C24.7639 16.1349 24.8527 15.8903 24.9307 15.6418C25.2297 14.7009 25.3581 13.9285 25.5271 12.086L25.5349 11.9993L25.5428 11.9142C26.1188 5.65666 25.3127 3.333 22.0221 2.14009C21.0265 1.78739 19.98 1.61743 18.9289 1.63772H18.907C18.4827 1.63117 18.0554 1.65408 17.6327 1.70972C17.0065 1.79154 16.3991 1.93554 15.834 2.14009C12.5451 3.33464 11.7389 5.6583 12.3165 11.9158L12.3228 11.9829L12.3291 12.0533C12.4981 13.9138 12.6265 14.6927 12.927 15.6418C13.0053 15.8922 13.0945 16.136 13.1932 16.3749C13.3904 16.8495 13.5595 17.2128 13.9947 18.1111L14.0134 18.152C14.5363 19.2288 14.7492 19.7017 14.9715 20.2908C16.0266 23.0808 14.4737 25.2212 10.6337 26.9672C9.74141 27.3747 9.37354 27.517 7.43085 28.2108C4.47377 29.2712 3.00071 30.6752 2.55143 32.8189L2.54987 32.8385C2.7565 32.8991 3.02419 32.9629 3.3451 33.0316C4.61675 33.2839 5.89716 33.4853 7.18352 33.6354C10.8122 34.0838 15.0325 34.3636 18.932 34.3636C22.8315 34.3636 27.0503 34.0854 30.6774 33.6354C32.2271 33.444 33.5671 33.2312 34.5126 33.03C34.8335 32.9645 35.0997 32.8991 35.3063 32.8402C34.8304 30.6507 33.3589 29.263 30.4285 28.2108ZM22.5356 0.595345C26.6793 2.0959 27.7375 5.14938 27.1019 12.0713L27.0941 12.1563L27.0863 12.2431C26.9063 14.1969 26.7607 15.0756 26.4178 16.1557C26.3239 16.4535 26.2175 16.7447 26.1001 17.0262C25.8887 17.5368 25.7087 17.9262 25.2594 18.854L25.2406 18.8917C24.7381 19.9291 24.544 20.3611 24.3421 20.8913C23.6799 22.6455 24.6818 24.0266 27.8486 25.4666C28.694 25.8512 29.0274 25.9805 30.9357 26.6612C34.3671 27.8934 36.2565 29.6967 36.8608 32.634L36.9312 33.3213C36.9312 34.3685 35.3407 34.7056 30.8605 35.2604C26.9009 35.7427 22.9184 35.9897 18.932 36C14.9446 35.9896 10.961 35.7427 7.00036 35.2604C2.517 34.7056 0.926527 34.3702 0.931224 33.228L1.00949 32.5522C1.60435 29.695 3.49382 27.8918 6.92366 26.6612C8.82877 25.9805 9.16534 25.8512 10.0091 25.4666C13.1759 24.0266 14.1778 22.6455 13.5156 20.8913C13.3153 20.3611 13.1196 19.9259 12.6171 18.8917L12.5983 18.8508C12.299 18.2524 12.0187 17.6439 11.7577 17.0262C11.6392 16.7412 11.5332 16.4507 11.4399 16.1557C11.0955 15.0658 10.9499 14.1805 10.7699 12.2087L10.7636 12.1383L10.7574 12.0713C10.1187 5.15429 11.18 2.0959 15.3206 0.595345C16.0079 0.347547 16.7184 0.176413 17.4402 0.0847956C17.9301 0.0226133 18.4264 -0.00684151 18.9179 0.00134038C20.1702 -0.0150234 21.4148 0.186251 22.5356 0.595345Z" fill="black"/>
</svg>
