<svg width="20" height="20" viewBox="0 0 20 20" fill="none" xmlns="http://www.w3.org/2000/svg">
<g id=" ">
<path id="Vector" d="M6.875 8.125V4.41406C6.875 3.58526 7.20424 2.79041 7.79029 2.20435C8.37634 1.6183 9.1712 1.28906 10 1.28906C10.8288 1.28906 11.6237 1.6183 12.2097 2.20435C12.7958 2.79041 13.125 3.58526 13.125 4.41406V8.125" stroke="#9E9E9E" stroke-linecap="round" stroke-linejoin="round"/>
<path id="Vector_2" d="M5.625 8.125H14.375C15.4105 8.125 16.25 8.96447 16.25 10V16.875C16.25 17.9105 15.4105 18.75 14.375 18.75H5.625C4.58947 18.75 3.75 17.9105 3.75 16.875V10C3.75 8.96447 4.58947 8.125 5.625 8.125Z" stroke="#9E9E9E" stroke-linecap="round" stroke-linejoin="round"/>
</g>
</svg>
