<svg width="30" height="30" viewBox="0 0 30 30" fill="none" xmlns="http://www.w3.org/2000/svg">
<path d="M27.5001 15.8333C27.3903 15.8339 27.2817 15.8129 27.1801 15.7714C27.0786 15.7299 26.9862 15.6688 26.9083 15.5917L15.0001 3.67498L3.09168 15.5917C2.93227 15.7282 2.72721 15.7994 2.51748 15.7914C2.30775 15.7833 2.1088 15.6963 1.96039 15.5479C1.81197 15.3996 1.72503 15.2006 1.71693 14.9908C1.70883 14.7811 1.78017 14.5761 1.91669 14.4167L14.4167 1.91664C14.5728 1.76143 14.7841 1.67432 15.0042 1.67432C15.2243 1.67432 15.4356 1.76143 15.5917 1.91664L28.0917 14.4167C28.2063 14.5336 28.2841 14.6818 28.3149 14.8427C28.3458 15.0036 28.3287 15.1699 28.2656 15.3212C28.2024 15.4723 28.0961 15.6014 27.9599 15.6926C27.8238 15.7837 27.6638 15.8327 27.5001 15.8333Z" fill="#ED9CA7"/>
<path d="M6.01854 27.3149L6.01843 27.3148C5.84661 27.143 5.75 26.9098 5.75 26.6667V16.835L15.0015 7.55258L24.25 16.7779V26.6667C24.25 26.9098 24.1534 27.143 23.9815 27.3149C23.8096 27.4868 23.5765 27.5833 23.3334 27.5833H18.25V20.0001V19.2501H17.5H12.5H11.75V20.0001V27.5833H6.66666C6.42345 27.5833 6.19035 27.4868 6.01854 27.3149Z" stroke="#ED9CA7" stroke-width="1.5"/>
</svg>
