<svg width="30" height="30" viewBox="0 0 30 30" fill="none" xmlns="http://www.w3.org/2000/svg">
<path d="M26.25 26.25V14.0625M3.75 14.0625V26.25M1.875 27.1875H28.125M16.875 27.1875V18.2812C16.875 17.9083 17.0232 17.5506 17.2869 17.2869C17.5506 17.0232 17.9083 16.875 18.2812 16.875H22.0312C22.4042 16.875 22.7619 17.0232 23.0256 17.2869C23.2893 17.5506 23.4375 17.9083 23.4375 18.2812V27.1875M22.4104 2.8125H7.58965C6.31289 2.8125 5.15977 3.51562 4.66406 4.59727L2.12695 10.1367C1.27266 12.0006 2.69121 14.1123 4.89199 14.1797H5.00918C6.84902 14.1797 8.34023 12.7043 8.34023 11.1193C8.34023 12.7014 9.83203 14.1797 11.6719 14.1797C13.5117 14.1797 15 12.8098 15 11.1193C15 12.7014 16.4912 14.1797 18.3311 14.1797C20.1709 14.1797 21.6627 12.8098 21.6627 11.1193C21.6627 12.8098 23.1539 14.1797 24.9937 14.1797H25.108C27.3088 14.1111 28.7273 11.9994 27.873 10.1367L25.3359 4.59727C24.8402 3.51562 23.6871 2.8125 22.4104 2.8125ZM7.96875 16.875H12.6562C13.0292 16.875 13.3869 17.0232 13.6506 17.2869C13.9143 17.5506 14.0625 17.9083 14.0625 18.2812V23.4375H6.5625V18.2812C6.5625 17.9083 6.71066 17.5506 6.97438 17.2869C7.2381 17.0232 7.59579 16.875 7.96875 16.875Z" stroke="#ED9CA7" stroke-width="1.5" stroke-linecap="round" stroke-linejoin="round"/>
</svg>
