<svg width="30" height="30" viewBox="0 0 30 30" fill="none" xmlns="http://www.w3.org/2000/svg">
<path fill-rule="evenodd" clip-rule="evenodd" d="M24.3006 5.68951C23.0871 4.47549 21.6456 3.51347 20.0588 2.85882C18.4721 2.20418 16.7715 1.86984 15.0551 1.87506C7.85156 1.87506 1.9875 7.70983 1.98457 14.8829C1.98138 17.1669 2.58345 19.411 3.72949 21.3868L1.875 28.1251L8.80371 26.3163C10.7216 27.3553 12.8686 27.8991 15.0498 27.8983H15.0551C22.258 27.8983 28.1215 22.063 28.125 14.8905C28.1294 13.1799 27.7935 11.4855 27.1369 9.90588C26.4804 8.32628 25.5162 6.89303 24.3006 5.68951ZM15.0551 25.7028H15.0504C13.1059 25.7034 11.1967 25.183 9.52148 24.1958L9.1248 23.9614L5.01328 25.0348L6.11074 21.0452L5.85234 20.635C4.76507 18.9136 4.18901 16.9189 4.19121 14.8829C4.19121 8.92213 9.0668 4.07233 15.0592 4.07233C17.9338 4.06719 20.6927 5.20408 22.7292 7.23294C24.7656 9.2618 25.9128 12.0165 25.9184 14.8911C25.916 20.8524 21.0428 25.7028 15.0551 25.7028ZM21.0135 17.6057C20.6871 17.4428 19.0799 16.6565 18.7822 16.5481C18.4846 16.4397 18.2648 16.3852 18.0475 16.711C17.8301 17.0368 17.2037 17.7657 17.0133 17.9854C16.8229 18.2051 16.6324 18.2292 16.3061 18.0663C15.9797 17.9034 14.9268 17.5606 13.6793 16.4532C12.7084 15.5913 12.0533 14.5272 11.8629 14.202C11.6725 13.8768 11.8424 13.7004 12.0059 13.5387C12.1529 13.3928 12.3322 13.159 12.4957 12.9692C12.6592 12.7794 12.7137 12.6434 12.8221 12.4266C12.9305 12.2098 12.8766 12.02 12.7951 11.8577C12.7137 11.6954 12.0604 10.0952 11.7885 9.4442C11.523 8.81022 11.2541 8.89635 11.0537 8.88639C10.8633 8.87701 10.6436 8.87467 10.4273 8.87467C10.2621 8.87897 10.0994 8.9173 9.94962 8.98727C9.79981 9.05723 9.66603 9.15733 9.55664 9.28131C9.25723 9.60709 8.41348 10.3946 8.41348 11.993C8.41348 13.5915 9.58535 15.1383 9.74707 15.3551C9.90879 15.5719 12.0498 18.8549 15.3258 20.263C15.9341 20.5235 16.5557 20.7519 17.1879 20.9473C17.9701 21.1946 18.682 21.16 19.2445 21.0762C19.8721 20.9831 21.1781 20.2899 21.4494 19.5305C21.7207 18.7712 21.7213 18.1208 21.6398 17.9854C21.5584 17.8501 21.3404 17.768 21.0135 17.6057Z" fill="#ED9CA7"/>
</svg>
